<?xml version="1.0" encoding="utf-8"?>
<!-- Generator: Adobe Illustrator 25.2.3, SVG Export Plug-In . SVG Version: 6.00 Build 0)  -->
<svg version="1.1" id="Layer_1" xmlns="http://www.w3.org/2000/svg" xmlns:xlink="http://www.w3.org/1999/xlink" x="0px" y="0px"
	 viewBox="0 0 31.8 44.6" style="enable-background:new 0 0 31.8 44.6;" xml:space="preserve">
<style type="text/css">
	.st0{fill:#455B65;}
</style>
<g>
	<path class="st0" d="M28.6,0c-1.9,0-3.4,1.5-3.4,3.4c0,0.7,0.2,1.4,0.6,1.9l-4.4,5.5c-0.4-0.2-0.9-0.2-1.3-0.2
		c-1.1,0-2.1,0.5-2.7,1.4l-2.1-0.8c0-0.1,0-0.1,0-0.2c0-1.9-1.5-3.4-3.4-3.4S8.5,9.1,8.5,11c0,0.7,0.2,1.3,0.6,1.8l-4.2,5
		c-0.6-0.1-1-0.2-1.5-0.2C1.5,17.6,0,19.1,0,21s1.5,3.4,3.4,3.4s3.4-1.5,3.4-3.4c0-0.7-0.2-1.3-0.6-1.8l4.2-5
		c0.4,0.2,0.9,0.3,1.3,0.3c1.1,0,2.1-0.5,2.7-1.4l2.1,0.8c0,0.1,0,0.1,0,0.2c0,1.9,1.5,3.4,3.4,3.4s3.4-1.5,3.4-3.4
		c0-0.7-0.2-1.4-0.6-1.9l4.4-5.5c0.4,0.2,0.8,0.2,1.3,0.2c1.9,0,3.4-1.5,3.4-3.4S30.5,0,28.6,0z M3.4,22.4C2.6,22.4,2,21.8,2,21
		s0.6-1.4,1.4-1.4s1.4,0.6,1.4,1.4S4.2,22.4,3.4,22.4z M11.8,12.4c-0.8,0-1.4-0.6-1.4-1.4s0.6-1.4,1.4-1.4s1.4,0.6,1.4,1.4
		C13.3,11.8,12.6,12.4,11.8,12.4z M20.1,15.4c-0.8,0-1.4-0.6-1.4-1.4s0.6-1.4,1.4-1.4s1.4,0.6,1.4,1.4
		C21.5,14.7,20.9,15.4,20.1,15.4z M28.6,4.8c-0.8,0-1.4-0.6-1.4-1.4S27.8,2,28.6,2S30,2.6,30,3.4S29.4,4.8,28.6,4.8z"/>
	<path class="st0" d="M3.4,25.5c-0.6,0-1,0.4-1,1v3.7c0,0.6,0.4,1,1,1s1-0.4,1-1v-3.7C4.4,25.9,4,25.5,3.4,25.5z"/>
	<path class="st0" d="M6.6,25.5c-0.6,0-1,0.4-1,1v3.7c0,0.6,0.4,1,1,1s1-0.4,1-1v-3.7C7.6,25.9,7.1,25.5,6.6,25.5z"/>
	<path class="st0" d="M9.7,18.6c-0.6,0-1,0.4-1,1v10.6c0,0.6,0.4,1,1,1s1-0.4,1-1V19.6C10.7,19.1,10.3,18.6,9.7,18.6z"/>
	<path class="st0" d="M12.9,15.6c-0.6,0-1,0.4-1,1v13.6c0,0.6,0.4,1,1,1s1-0.4,1-1V16.6C13.9,16.1,13.4,15.6,12.9,15.6z"/>
	<path class="st0" d="M16,18c-0.6,0-1,0.4-1,1v11.3c0,0.6,0.4,1,1,1s1-0.4,1-1V19C17,18.4,16.6,18,16,18z"/>
	<path class="st0" d="M19.1,20.2c-0.6,0-1,0.4-1,1v9c0,0.6,0.4,1,1,1s1-0.4,1-1v-9C20.1,20.7,19.7,20.2,19.1,20.2z"/>
	<path class="st0" d="M22.3,19.4c-0.6,0-1,0.4-1,1v9.9c0,0.6,0.4,1,1,1s1-0.4,1-1v-9.9C23.3,19.8,22.8,19.4,22.3,19.4z"/>
	<path class="st0" d="M25.4,14.9c-0.6,0-1,0.4-1,1v14.4c0,0.6,0.4,1,1,1s1-0.4,1-1V15.9C26.4,15.3,26,14.9,25.4,14.9z"/>
	<path class="st0" d="M28.6,9.5c-0.6,0-1,0.4-1,1v19.7c0,0.6,0.4,1,1,1s1-0.4,1-1V10.5C29.6,10,29.1,9.5,28.6,9.5z"/>
</g>
<g>
	<path class="st0" d="M2,33.1h0.7v4.3H2V33.1z M2.3,36.7h1.3c0.2,0,0.4-0.1,0.5-0.2c0.1-0.1,0.2-0.2,0.2-0.4v0c0-0.1,0-0.2-0.1-0.3
		S4.1,35.6,4,35.5c-0.1,0-0.2-0.1-0.4-0.1H2.3v-0.7h1.3c0.2,0,0.3,0,0.4-0.1s0.2-0.2,0.2-0.4c0-0.2-0.1-0.3-0.2-0.4
		c-0.1-0.1-0.3-0.1-0.5-0.1H2.3v-0.7h1.4c0.3,0,0.5,0,0.7,0.1c0.2,0.1,0.3,0.2,0.4,0.4S5,34,5,34.2c0,0.2,0,0.3-0.1,0.4
		c-0.1,0.1-0.2,0.2-0.3,0.3s-0.3,0.1-0.4,0.2c0.2,0,0.3,0.1,0.5,0.2c0.1,0.1,0.2,0.2,0.3,0.4C5,35.8,5,36,5,36.2v0
		c0,0.2-0.1,0.4-0.2,0.6s-0.3,0.3-0.4,0.4S4,37.3,3.8,37.3H2.3V36.7z"/>
	<path class="st0" d="M7.7,37.3v-2.1l0.1,0.1l-1.3,2H5.8v-3h0.7v2.1l-0.1-0.1l1.4-2.1h0.6v3H7.7z"/>
	<path class="st0" d="M9.2,34.3h0.7v4.3H9.2V34.3z M10.2,37.2c-0.1-0.1-0.2-0.2-0.3-0.4l0-0.7c0,0.1,0,0.2,0.1,0.3s0.1,0.1,0.2,0.2
		s0.2,0.1,0.3,0.1c0.2,0,0.3-0.1,0.4-0.2s0.1-0.3,0.1-0.5v-0.6c0-0.2,0-0.4-0.1-0.5c-0.1-0.1-0.2-0.2-0.4-0.2c-0.1,0-0.2,0-0.3,0.1
		c-0.1,0-0.1,0.1-0.2,0.2s-0.1,0.2-0.1,0.3l-0.1-0.6c0.1-0.2,0.2-0.3,0.3-0.4c0.1-0.1,0.3-0.1,0.5-0.1c0.2,0,0.4,0,0.6,0.1
		s0.3,0.2,0.4,0.4c0.1,0.2,0.1,0.4,0.1,0.7v0.6c0,0.3,0,0.5-0.1,0.7c-0.1,0.2-0.2,0.3-0.4,0.4s-0.3,0.1-0.6,0.1
		C10.5,37.4,10.3,37.3,10.2,37.2z"/>
	<path class="st0" d="M13,37.2c-0.2-0.1-0.3-0.3-0.4-0.5c-0.1-0.2-0.2-0.4-0.2-0.7v-0.5c0-0.3,0.1-0.5,0.2-0.7
		c0.1-0.2,0.2-0.3,0.4-0.4c0.2-0.1,0.4-0.2,0.7-0.2s0.5,0.1,0.7,0.2c0.2,0.1,0.3,0.3,0.4,0.4c0.1,0.2,0.2,0.4,0.2,0.7V36
		c0,0.3-0.1,0.5-0.2,0.7c-0.1,0.2-0.2,0.3-0.4,0.4s-0.4,0.2-0.7,0.2S13.2,37.3,13,37.2z M14.1,36.5c0.1-0.1,0.2-0.3,0.2-0.5v-0.5
		c0-0.2-0.1-0.4-0.2-0.5s-0.2-0.2-0.4-0.2s-0.3,0.1-0.4,0.2s-0.2,0.3-0.2,0.5V36c0,0.2,0.1,0.4,0.2,0.5s0.2,0.2,0.4,0.2
		C13.9,36.7,14,36.6,14.1,36.5z"/>
	<path class="st0" d="M15.8,34.6c0-0.3,0-0.5,0.1-0.7s0.2-0.3,0.4-0.4c0.2-0.1,0.4-0.1,0.7-0.1c0.1,0,0.2,0,0.2,0
		c0.1,0,0.1,0,0.1-0.1c0,0,0-0.1,0-0.1h0.7c0,0.2,0,0.4-0.1,0.5s-0.2,0.2-0.3,0.3s-0.4,0.1-0.6,0.1c-0.2,0-0.3,0-0.4,0.1
		c-0.1,0-0.2,0.1-0.2,0.2c-0.1,0.1-0.1,0.2-0.1,0.4v1.1h-0.7V34.6z M16.4,37.2c-0.2-0.1-0.3-0.3-0.4-0.5c-0.1-0.2-0.2-0.4-0.2-0.7
		v-0.5l0.5-0.5c0-0.2,0.1-0.4,0.3-0.5s0.3-0.2,0.6-0.2c0.2,0,0.4,0.1,0.6,0.2c0.2,0.1,0.3,0.3,0.4,0.4c0.1,0.2,0.1,0.4,0.1,0.7V36
		c0,0.3-0.1,0.5-0.2,0.7c-0.1,0.2-0.2,0.3-0.4,0.4c-0.2,0.1-0.4,0.2-0.7,0.2S16.6,37.3,16.4,37.2z M17.5,36.5
		c0.1-0.1,0.2-0.3,0.2-0.5v-0.4c0-0.2-0.1-0.4-0.2-0.5c-0.1-0.1-0.2-0.2-0.4-0.2c-0.2,0-0.3,0.1-0.4,0.2s-0.2,0.3-0.2,0.5V36
		c0,0.2,0,0.4,0.2,0.5c0.1,0.1,0.2,0.2,0.4,0.2S17.4,36.6,17.5,36.5z"/>
	<path class="st0" d="M19.1,34.3h0.7v3h-0.7V34.3z M19.5,35.5h1.9v0.6h-1.9V35.5z M21,34.3h0.7v3H21V34.3z"/>
	<path class="st0" d="M24.5,37.3v-2.1l0.1,0.1l-1.3,2h-0.6v-3h0.7v2.1l-0.1-0.1l1.4-2.1h0.6v3H24.5z"/>
	<path class="st0" d="M26.5,36.2c-0.2-0.1-0.3-0.2-0.4-0.4c-0.1-0.2-0.1-0.4-0.1-0.7v-0.9h0.7v0.9c0,0.2,0,0.3,0.1,0.4
		c0.1,0.1,0.2,0.1,0.4,0.1c0.2,0,0.3-0.1,0.5-0.2c0.1-0.1,0.2-0.3,0.2-0.4v-0.3h0.3v0.3c0,0.4-0.1,0.7-0.2,1
		c-0.2,0.2-0.4,0.3-0.7,0.3C26.9,36.4,26.7,36.3,26.5,36.2z M27.8,34.3h0.7v3h-0.7V34.3z"/>
	<path class="st0" d="M29.4,33.1h0.7v0.7h-0.7V33.1z M29.4,34.3h0.7v3h-0.7V34.3z"/>
	<path class="st0" d="M1.8,41.5h0.7v3H1.8V41.5z M2.2,41.5h1.9v0.7H2.2V41.5z M3.7,41.5h0.7v3H3.7V41.5z"/>
	<path class="st0" d="M5.7,44.4c-0.2-0.1-0.3-0.3-0.4-0.5c-0.1-0.2-0.2-0.4-0.2-0.7v-0.5c0-0.3,0.1-0.5,0.2-0.7
		c0.1-0.2,0.2-0.3,0.4-0.4c0.2-0.1,0.4-0.2,0.7-0.2s0.5,0.1,0.7,0.2c0.2,0.1,0.3,0.3,0.4,0.4c0.1,0.2,0.2,0.4,0.2,0.7v0.5
		c0,0.3-0.1,0.5-0.2,0.7c-0.1,0.2-0.2,0.3-0.4,0.4s-0.4,0.2-0.7,0.2S5.9,44.5,5.7,44.4z M6.9,43.7C7,43.6,7,43.5,7,43.2v-0.5
		c0-0.2-0.1-0.4-0.2-0.5s-0.2-0.2-0.4-0.2S6.1,42.2,6,42.3s-0.2,0.3-0.2,0.5v0.5c0,0.2,0.1,0.4,0.2,0.5s0.2,0.2,0.4,0.2
		C6.6,43.9,6.8,43.8,6.9,43.7z"/>
	<path class="st0" d="M8.5,41.5h0.7v3H8.5V41.5z M8.8,42.7h1.3v0.7H8.8V42.7z M9.6,42.8l0.7-1.3H11l-1,1.8L9.6,42.8z M9.6,43.2
		l0.6-0.3l1,1.6h-0.9L9.6,43.2z"/>
	<path class="st0" d="M11.7,44.3c-0.2-0.2-0.3-0.4-0.3-0.7c0-0.3,0.1-0.5,0.3-0.7s0.4-0.2,0.8-0.2h0.8l0,0.5h-0.9
		c-0.1,0-0.2,0-0.3,0.1s-0.1,0.1-0.1,0.3c0,0.1,0,0.2,0.1,0.3c0.1,0.1,0.2,0.1,0.4,0.1c0.2,0,0.4,0,0.5-0.1s0.2-0.1,0.2-0.2l0.1,0.4
		c0,0.1-0.1,0.2-0.2,0.2s-0.2,0.1-0.3,0.1c-0.1,0-0.2,0-0.4,0C12.1,44.6,11.9,44.5,11.7,44.3z M13.3,42.6c0-0.2-0.1-0.3-0.2-0.4
		s-0.2-0.1-0.4-0.1c-0.1,0-0.2,0-0.3,0.1s-0.2,0.1-0.3,0.2l-0.5-0.4c0.1-0.1,0.3-0.2,0.5-0.3s0.4-0.1,0.6-0.1c0.3,0,0.5,0,0.7,0.1
		s0.3,0.2,0.4,0.4s0.1,0.4,0.1,0.6v2h-0.6V42.6z"/>
	<path class="st0" d="M15.2,44.5c-0.2-0.1-0.3-0.2-0.4-0.3c-0.1-0.1-0.2-0.3-0.2-0.5h0.7c0,0.1,0.1,0.2,0.2,0.3
		c0.1,0.1,0.2,0.1,0.3,0.1c0.2,0,0.3,0,0.4-0.1c0.1-0.1,0.1-0.1,0.1-0.3v0c0-0.1,0-0.2-0.1-0.2c-0.1-0.1-0.2-0.1-0.3-0.1h-0.4v-0.6
		h0.4c0.1,0,0.2,0,0.2-0.1s0.1-0.1,0.1-0.2v0c0-0.1,0-0.2-0.1-0.3C16,42.1,15.9,42,15.8,42c-0.1,0-0.2,0-0.3,0.1s-0.1,0.2-0.2,0.3
		h-0.7c0.1-0.3,0.2-0.5,0.4-0.7c0.2-0.2,0.5-0.3,0.8-0.3c0.3,0,0.6,0.1,0.8,0.2c0.2,0.1,0.3,0.3,0.3,0.6v0c0,0.2,0,0.3-0.1,0.4
		s-0.2,0.2-0.3,0.3c0.2,0,0.3,0.1,0.4,0.2c0.1,0.1,0.1,0.3,0.1,0.5v0c0,0.3-0.1,0.5-0.3,0.7c-0.2,0.2-0.5,0.2-0.8,0.2
		C15.6,44.6,15.4,44.5,15.2,44.5z"/>
	<path class="st0" d="M17.6,41.5h0.7v3h-0.7V41.5z M18,42.7h1.9v0.6H18V42.7z M19.5,41.5h0.7v3h-0.7V41.5z"/>
	<path class="st0" d="M23,44.5v-2.1l0.1,0.1l-1.3,2h-0.6v-3h0.7v2.1l-0.1-0.1l1.4-2.1h0.6v3H23z"/>
	<path class="st0" d="M24.5,41.5h0.7v3h-0.7V41.5z M24.9,42.7h1.3v0.7h-1.3V42.7z M25.6,42.8l0.7-1.3H27l-1,1.8L25.6,42.8z
		 M25.6,43.2l0.6-0.3l1,1.6h-0.9L25.6,43.2z"/>
	<path class="st0" d="M29.5,44.5v-2.1l0.1,0.1l-1.3,2h-0.6v-3h0.7v2.1l-0.1-0.1l1.4-2.1h0.6v3H29.5z"/>
</g>
<rect x="-31.8" y="23.7" style="fill:none;" width="27.2" height="9.9"/>
<text transform="matrix(1 0 0 1 -30.6474 27.2654)" style="display:none;"><tspan x="0" y="0" style="display:inline;fill:#455B65; font-family:'MyriadPro-Bold'; font-size:5px;">Виробничі </tspan><tspan x="-0.1" y="6" style="display:inline;fill:#455B65; font-family:'MyriadPro-Bold'; font-size:5px;">показники </tspan></text>
</svg>
